<?xml version="1.0" encoding="iso-8859-1"?>
<!-- Generator: Adobe Illustrator 19.0.0, SVG Export Plug-In . SVG Version: 6.00 Build 0)  -->
<svg version="1.1" id="Capa_1" xmlns="http://www.w3.org/2000/svg" xmlns:xlink="http://www.w3.org/1999/xlink" x="0px" y="0px"
	 viewBox="0 0 512.163 512.163" style="enable-background:new 0 0 512.163 512.163;" xml:space="preserve">
<g transform="translate(-1 -1)">
	<g>
		<g>
			<path d="M316.86,291.297H94.993c-14.139,0-25.6,11.461-25.6,25.6v85.333c0,14.138,11.461,25.6,25.6,25.6H316.86
				c14.138,0,25.6-11.462,25.6-25.6v-85.333C342.46,302.758,330.998,291.297,316.86,291.297z M325.393,402.23
				c0,4.713-3.82,8.533-8.533,8.533H94.993c-4.713,0-8.533-3.82-8.533-8.533v-85.333c0-4.713,3.821-8.533,8.533-8.533H316.86
				c4.713,0,8.533,3.82,8.533,8.533V402.23z"/>
			<path d="M214.46,342.497c4.713,0,8.533-3.821,8.533-8.533c0-4.713-3.821-8.533-8.533-8.533h-76.8
				c-18.851,0-34.133,15.282-34.133,34.133s15.282,34.133,34.133,34.133s34.133-15.282,34.133-34.133
				c-0.035-6.01-1.673-11.901-4.745-17.067H214.46z M137.66,376.63c-9.426,0-17.067-7.641-17.067-17.067s7.641-17.067,17.067-17.067
				s17.067,7.641,17.067,17.067S147.086,376.63,137.66,376.63z"/>
			<path d="M274.193,325.43c-18.851,0-34.133,15.282-34.133,34.133c0.035,6.01,1.673,11.901,4.745,17.067h-47.411
				c-4.713,0-8.533,3.82-8.533,8.533s3.82,8.533,8.533,8.533h76.8c18.851,0,34.133-15.282,34.133-34.133
				S293.045,325.43,274.193,325.43z M274.193,376.63c-9.426,0-17.067-7.641-17.067-17.067s7.641-17.067,17.067-17.067
				c9.426,0,17.067,7.641,17.067,17.067S283.619,376.63,274.193,376.63z"/>
			<path d="M125.372,113.547c-0.477-0.322-0.993-0.58-1.536-0.768c-0.511-0.259-1.062-0.432-1.63-0.512
				c-2.781-0.507-5.637,0.35-7.68,2.304c-0.79,0.802-1.4,1.761-1.792,2.816c-0.91,2.066-0.91,4.419,0,6.485
				c0.412,1.044,1.021,2,1.792,2.816c1.637,1.561,3.805,2.445,6.067,2.475c0.541-0.014,1.081-0.071,1.613-0.171
				c0.568-0.08,1.119-0.253,1.63-0.512c0.543-0.188,1.06-0.446,1.536-0.768c0.445-0.317,0.873-0.659,1.28-1.024
				c3.3-3.365,3.3-8.752,0-12.117L125.372,113.547z"/>
			<path d="M499.351,250.167c-8.466-4.409-18.681-3.741-26.502,1.731l-45.056,31.539v-0.674c0-14.138-11.462-25.6-25.6-25.6h-51.2
				v-25.003c13.619,5.226,28.079,7.916,42.667,7.936c48.322,0.003,91.888-29.104,110.381-73.748
				c18.493-44.644,8.27-96.032-25.901-130.199C437.078-5.085,372.269-10.711,324.715,22.831
				c-47.554,33.542-64,96.481-38.934,148.999h-57.31c25.01-52.512,8.547-115.405-38.982-148.93S77.189-5.03,36.113,36.15
				C-2.637,74.8-10.154,134.845,17.875,181.854c28.028,47.009,84.426,68.947,136.852,53.234v22.076H60.86
				c-14.138,0-25.6,11.462-25.6,25.6v17.067h-8.533c-14.138,0-25.6,11.462-25.6,25.6v51.2c0,14.138,11.461,25.6,25.6,25.6h8.533
				v85.333c0,14.138,11.461,25.6,25.6,25.6h341.333c14.138,0,25.6-11.462,25.6-25.6v-94.541l45.056,31.573
				c7.825,5.476,18.049,6.14,26.517,1.723c8.468-4.417,13.773-13.181,13.761-22.732V272.873
				C513.127,263.328,507.817,254.576,499.351,250.167z M35.26,385.163h-8.533c-4.713,0-8.533-3.82-8.533-8.533v-51.2
				c0-4.713,3.82-8.533,8.533-8.533h8.533V385.163z M385.127,222.526c-11.82-0.965-23.377-4.016-34.133-9.011V197.43
				c-0.016-5.918-2.082-11.647-5.845-16.213l18.893-18.901c6.276,4.475,13.486,7.465,21.086,8.747V222.526z M402.193,222.612v-51.55
				c7.6-1.281,14.81-4.272,21.086-8.747l36.446,36.446C443.525,212.55,423.398,220.894,402.193,222.612z M471.748,186.695
				l-36.403-36.446c4.475-6.276,7.465-13.486,8.747-21.086h51.55C493.912,150.373,485.553,170.5,471.748,186.695z M495.642,112.097
				h-51.55c-1.281-7.6-4.272-14.81-8.747-21.086l36.446-36.446C485.58,70.765,493.924,90.892,495.642,112.097z M402.193,18.648
				c21.209,1.73,41.337,10.089,57.532,23.893l-36.446,36.403c-6.276-4.475-13.486-7.465-21.086-8.747V18.648z M393.66,86.497
				c18.851,0,34.133,15.282,34.133,34.133s-15.282,34.133-34.133,34.133c-18.851,0-34.133-15.282-34.133-34.133
				S374.809,86.497,393.66,86.497z M385.127,18.648v51.55c-7.6,1.281-14.81,4.272-21.086,8.747l-36.446-36.446
				C343.795,28.71,363.922,20.366,385.127,18.648z M315.571,54.565l36.446,36.446c-4.49,6.272-7.495,13.482-8.789,21.086h-51.55
				C293.408,90.887,301.767,70.76,315.571,54.565z M343.228,129.163c1.281,7.6,4.272,14.81,8.747,21.086l-22.067,22.067
				c-1.487-0.297-2.998-0.459-4.514-0.486h-20.326c-7.592-13.046-12.175-27.623-13.414-42.667H343.228z M325.393,188.897
				c1.211-0.01,2.408,0.259,3.499,0.785c3.052,1.372,5.021,4.402,5.035,7.748v59.733H171.793V197.43c0-4.713,3.82-8.533,8.533-8.533
				H325.393z M162.279,150.249c4.475-6.276,7.465-13.486,8.747-21.086h51.413c-1.166,15.026-5.67,29.602-13.184,42.667h-25.395
				L162.279,150.249z M198.724,54.565c13.789,16.2,22.133,36.327,23.851,57.532h-51.55c-1.281-7.6-4.272-14.81-8.747-21.086
				L198.724,54.565z M129.127,18.648c21.209,1.73,41.337,10.089,57.532,23.893l-36.446,36.403
				c-6.276-4.475-13.486-7.465-21.086-8.747V18.648z M112.06,18.648v51.55c-7.6,1.281-14.81,4.272-21.086,8.747L54.528,42.499
				C70.728,28.71,90.855,20.366,112.06,18.648z M42.505,54.565l36.403,36.446c-4.475,6.276-7.465,13.486-8.747,21.086h-51.55
				C20.341,90.887,28.7,70.76,42.505,54.565z M18.611,129.163h51.55c1.281,7.6,4.272,14.81,8.747,21.086l-36.446,36.446
				C28.673,170.495,20.329,150.368,18.611,129.163z M112.06,222.612c-21.209-1.73-41.337-10.089-57.532-23.893l36.446-36.403
				c6.276,4.475,13.486,7.465,21.086,8.747V222.612z M86.46,120.63c0-18.851,15.282-34.133,34.133-34.133
				s34.133,15.282,34.133,34.133c0,9.053-3.596,17.735-9.997,24.136s-15.083,9.997-24.136,9.997
				C101.742,154.763,86.46,139.481,86.46,120.63z M129.127,222.672v-51.61c7.6-1.281,14.81-4.272,21.086-8.747l14.763,14.763
				c-6.429,4.793-10.226,12.333-10.249,20.352v19.738C146.466,220.099,137.862,221.949,129.127,222.672z M410.727,487.563
				c0,4.713-3.82,8.533-8.533,8.533H60.86c-4.713,0-8.533-3.82-8.533-8.533v-204.8c0-4.713,3.82-8.533,8.533-8.533h341.333
				c4.713,0,8.533,3.821,8.533,8.533V487.563z M496.06,403.587c-0.002,3.18-1.772,6.096-4.593,7.564
				c-2.821,1.469-6.224,1.247-8.83-0.575l-20.71-14.498v-53.581c0-4.713-3.821-8.533-8.533-8.533c-4.713,0-8.533,3.821-8.533,8.533
				v41.634l-17.067-11.947v-67.908l54.844-38.391c2.606-1.822,6.01-2.044,8.83-0.575s4.591,4.384,4.593,7.564V403.587z"/>
			<path d="M387.601,126.689c1.635,1.559,3.799,2.443,6.059,2.475c0.541-0.014,1.081-0.071,1.613-0.171
				c0.568-0.08,1.119-0.253,1.63-0.512c0.543-0.188,1.06-0.446,1.536-0.768c0.445-0.317,0.873-0.659,1.28-1.024
				c3.3-3.365,3.3-8.752,0-12.117l-1.28-1.024c-0.477-0.322-0.993-0.58-1.536-0.768c-0.511-0.259-1.062-0.432-1.63-0.512
				c-2.781-0.507-5.637,0.35-7.68,2.304c-0.79,0.802-1.4,1.761-1.792,2.816c-0.911,2.066-0.911,4.419,0,6.485
				C386.216,124.918,386.827,125.873,387.601,126.689z"/>
			<path d="M325.393,461.963H205.927c-4.713,0-8.533,3.82-8.533,8.533s3.82,8.533,8.533,8.533h119.467
				c4.713,0,8.533-3.82,8.533-8.533S330.106,461.963,325.393,461.963z"/>
			<path d="M385.127,461.963h-25.6c-4.713,0-8.533,3.82-8.533,8.533s3.82,8.533,8.533,8.533h25.6c4.713,0,8.533-3.82,8.533-8.533
				S389.839,461.963,385.127,461.963z"/>
			<path d="M205.927,223.03h51.2c4.713,0,8.533-3.821,8.533-8.533c0-4.713-3.82-8.533-8.533-8.533h-51.2
				c-4.713,0-8.533,3.821-8.533,8.533C197.393,219.209,201.214,223.03,205.927,223.03z"/>
			<path d="M291.26,223.03h17.067c4.713,0,8.533-3.821,8.533-8.533c0-4.713-3.82-8.533-8.533-8.533H291.26
				c-4.713,0-8.533,3.821-8.533,8.533C282.727,219.209,286.547,223.03,291.26,223.03z"/>
		</g>
	</g>
</g>
<g>
</g>
<g>
</g>
<g>
</g>
<g>
</g>
<g>
</g>
<g>
</g>
<g>
</g>
<g>
</g>
<g>
</g>
<g>
</g>
<g>
</g>
<g>
</g>
<g>
</g>
<g>
</g>
<g>
</g>
</svg>
